<?xml version="1.0" standalone="no"?>
<!DOCTYPE svg PUBLIC "-//W3C//DTD SVG 20010904//EN"
 "http://www.w3.org/TR/2001/REC-SVG-20010904/DTD/svg10.dtd">
<svg version="1.0" xmlns="http://www.w3.org/2000/svg"
 width="433.000000pt" height="433.000000pt" viewBox="0 0 433.000000 433.000000"
 preserveAspectRatio="xMidYMid meet">
<metadata>
Created by potrace 1.14, written by Peter Selinger 2001-2017
</metadata>
<g transform="translate(0.000000,433.000000) scale(0.100000,-0.100000)"
fill="#000000" stroke="none">
<path d="M1570 3235 l0 -155 -787 0 -788 0 385 -385 386 -385 412 2 412 3 0
-602 c0 -332 3 -603 7 -603 4 0 85 78 180 172 l173 173 0 -260 0 -260 177 178
c97 97 179 177 181 177 2 0 2 -43 0 -95 -2 -52 -1 -95 2 -95 3 0 89 84 192
187 l188 188 0 -75 0 -74 45 44 c24 24 42 47 39 52 -3 5 -1 7 4 6 5 -2 38 24
73 57 l65 60 -1 58 -1 57 53 0 53 0 0 -117 0 -118 118 118 117 117 193 0 192
0 1 83 c0 45 0 208 0 362 l0 280 347 348 347 347 -783 0 -782 0 0 149 c0 83
-3 152 -7 154 -5 2 -96 -9 -203 -24 -226 -33 -285 -55 -334 -126 -23 -33 -30
-55 -34 -113 l-5 -73 45 7 c77 12 79 7 76 -222 l-3 -197 -137 -3 -138 -3 0
210 c0 199 1 210 20 216 10 3 35 3 55 -1 l35 -6 0 61 c0 72 -16 115 -56 153
-50 46 -114 67 -291 93 -92 13 -180 27 -195 30 l-28 5 0 -155z"/>
</g>
</svg>
