<?xml version="1.0" standalone="no"?>
<!DOCTYPE svg PUBLIC "-//W3C//DTD SVG 20010904//EN"
 "http://www.w3.org/TR/2001/REC-SVG-20010904/DTD/svg10.dtd">
<svg version="1.0"
    xmlns="http://www.w3.org/2000/svg" width="1280.000000pt" height="725.000000pt" viewBox="0 0 1280.000000 725.000000" preserveAspectRatio="xMidYMid meet">

    <g transform="translate(0.000000,725.000000) scale(0.100000,-0.100000)" fill="#922D32">
        <path d="M4880 6281 c0 -528 -3 -673 -13 -676 -6 -3 -196 -4 -422 -3 l-409 3
232 242 c128 133 232 245 232 248 0 3 -883 5 -1962 5 l-1963 -1 223 -219 224
-220 1231 -2 1232 -3 -109 -87 -108 -88 -1034 0 c-569 0 -1034 -2 -1034 -6 0
-3 93 -104 206 -225 l206 -219 2074 0 2074 0 0 623 0 622 24 51 c48 103 136
168 263 194 29 6 53 14 53 17 0 24 -73 133 -114 169 -128 116 -278 156 -771
209 -132 14 -261 29 -287 32 l-48 6 0 -672z"/>
        <path d="M7879 6946 c-2 -2 -96 -14 -209 -25 -453 -47 -565 -69 -706 -136 -69
-34 -103 -57 -141 -99 -40 -44 -93 -129 -93 -150 0 -2 31 -12 70 -21 98 -24
166 -68 215 -138 l40 -59 3 -644 2 -644 2079 0 2078 0 207 223 208 222 -1039
5 -1040 5 -105 85 -105 85 1231 3 1231 3 225 219 225 219 -1969 1 -1968 0 183
-191 c101 -105 208 -218 237 -250 l54 -59 -421 0 -421 0 0 675 0 675 -33 0
c-19 0 -36 -2 -38 -4z"/>
        <path d="M2015 4688 c44 -46 140 -145 214 -220 l134 -138 1304 0 1303 0 2
-1615 3 -1615 517 510 c284 280 519 510 522 510 3 0 7 -333 8 -740 l3 -740
388 381 387 381 0 241 1 242 131 110 c72 61 135 111 140 113 4 2 9 -236 10
-529 l3 -533 373 392 372 391 0 1255 0 1256 1318 0 1317 0 210 210 210 210
-1908 0 -1907 0 0 -1075 0 -1074 -131 -128 c-72 -70 -135 -129 -140 -131 -5
-2 -9 484 -9 1207 l0 1211 -375 0 -375 0 0 -1079 0 -1080 -147 -126 -148 -126
-5 1203 -5 1203 -1899 3 -1900 2 79 -82z"/>
        <path d="M8110 2825 c0 -679 2 -1235 5 -1235 2 0 80 72 172 160 l168 160 5
183 5 182 248 3 247 2 -2 888 -3 887 -422 3 -423 2 0 -1235z m490 345 l0 -560
-70 0 -70 0 0 560 0 560 70 0 70 0 0 -560z"/>
        <path d="M9080 2983 l0 -1076 63 59 c34 32 113 107 175 166 l112 108 0 740 0
740 95 0 95 0 0 170 0 170 -270 0 -270 0 0 -1077z"/>
        <path d="M9720 3175 l0 -885 350 0 350 0 0 885 0 885 -350 0 -350 0 0 -885z
m410 -5 l0 -550 -65 0 -65 0 0 550 0 550 65 0 65 0 0 -550z"/>
    </g>
</svg>
